<svg version="1.1" viewBox="0.0 0.0 960.0 720.0" fill="none" stroke="none" stroke-linecap="square" stroke-miterlimit="10" xmlns:xlink="http://www.w3.org/1999/xlink" xmlns="http://www.w3.org/2000/svg"><clipPath id="p.0"><path d="m0 0l960.0 0l0 720.0l-960.0 0l0 -720.0z" clip-rule="nonzero"/></clipPath><g clip-path="url(#p.0)"><path fill="#000000" fill-opacity="0.0" d="m0 0l960.0 0l0 720.0l-960.0 0z" fill-rule="evenodd"/><path fill="#000000" fill-opacity="0.0" d="m50.598427 60.755905l858.8031 0l0 598.48816l-858.8031 0z" fill-rule="evenodd"/><path fill="#000000" d="m102.992195 456.0l0 -120.046875l-20.703125 0l0 -18.234375l20.703125 0l0 -14.703125q0 -13.9375 2.484375 -20.703125q3.375 -9.125 11.90625 -14.78125q8.53125 -5.671875 23.890617 -5.671875q9.890625 0 21.875 2.34375l-3.515625 20.453125q-7.296875 -1.3125 -13.796875 -1.3125q-10.671875 0 -15.109375 4.5625q-4.4218674 4.5625 -4.4218674 17.0625l0 12.75l26.953117 0l0 18.234375l-26.953117 0l0 120.046875l-23.3125 0zm68.61689 -163.92188l0 -26.953125l23.4375 0l0 26.953125l-23.4375 0zm0 163.92188l0 -138.28125l23.4375 0l0 138.28125l-23.4375 0zm58.601852 0l0 -190.875l23.4375 0l0 190.875l-23.4375 0zm154.41434 -44.53125l24.21875 3.0q-5.734375 21.21875 -21.234375 32.9375q-15.484375 11.71875 -39.578125 11.71875q-30.328125 0 -48.109344 -18.6875q-17.765625 -18.6875 -17.765625 -52.40625q0 -34.890625 17.96875 -54.15625q17.96872 -19.28125 46.609344 -19.28125q27.734375 0 45.3125 18.890625q17.578125 18.875 17.578125 53.125q0 2.078125 -0.125 6.234375l-103.12497 0q1.2968445 22.796875 12.8905945 34.90625q11.59375 12.109375 28.90625 12.109375q12.890625 0 22.0 -6.765625q9.109375 -6.78125 14.453125 -21.625zm-76.953125 -37.890625l77.21875 0q-1.5625 -17.4375 -8.859375 -26.171875q-11.203125 -13.53125 -29.03125 -13.53125q-16.140625 0 -27.15625 10.8125q-11.0 10.796875 -12.171875 28.890625zm181.77026 61.453125l3.375 20.703125q-9.890625 2.09375 -17.703125 2.09375q-12.75 0 -19.78125 -4.03125q-7.03125 -4.046875 -9.90625 -10.625q-2.859375 -6.578125 -2.859375 -27.671875l0 -79.546875l-17.1875 0l0 -18.234375l17.1875 0l0 -34.234375l23.3125 -14.0625l0 48.296875l23.5625 0l0 18.234375l-23.5625 0l0 80.859375q0 10.015625 1.234375 12.890625q1.234375 2.859375 4.03125 4.5625q2.796875 1.6875 8.015625 1.6875q3.90625 0 10.28125 -0.921875zm22.648163 20.96875l0 -138.28125l21.09375 0l0 20.96875q8.078125 -14.71875 14.90625 -19.40625q6.84375 -4.6875 15.046936 -4.6875q11.84375 0 24.078125 7.5625l-8.0625 21.734375q-8.59375 -5.078125 -17.187561 -5.078125q-7.6875 0 -13.8125 4.625q-6.109375 4.625 -8.71875 12.828125q-3.90625 12.5 -3.90625 27.34375l0 72.390625l-23.4375 0zm183.72052 -44.53125l24.21875 3.0q-5.734375 21.21875 -21.234375 32.9375q-15.484375 11.71875 -39.578125 11.71875q-30.328125 0 -48.109375 -18.6875q-17.765625 -18.6875 -17.765625 -52.40625q0 -34.890625 17.96875 -54.15625q17.96875 -19.28125 46.609375 -19.28125q27.734375 0 45.3125 18.890625q17.578125 18.875 17.578125 53.125q0 2.078125 -0.125 6.234375l-103.125 0q1.296875 22.796875 12.890625 34.90625q11.59375 12.109375 28.90625 12.109375q12.890625 0 22.0 -6.765625q9.109375 -6.78125 14.453125 -21.625zm-76.953125 -37.890625l77.21875 0q-1.5625 -17.4375 -8.859375 -26.171875q-11.203125 -13.53125 -29.03125 -13.53125q-16.140625 0 -27.15625 10.8125q-11.0 10.796875 -12.171875 28.890625zm225.25464 37.890625l24.21875 3.0q-5.734375 21.21875 -21.234375 32.9375q-15.484375 11.71875 -39.578125 11.71875q-30.328125 0 -48.109375 -18.6875q-17.765625 -18.6875 -17.765625 -52.40625q0 -34.890625 17.96875 -54.15625q17.96875 -19.28125 46.609375 -19.28125q27.734375 0 45.3125 18.890625q17.578125 18.875 17.578125 53.125q0 2.078125 -0.125 6.234375l-103.125 0q1.296875 22.796875 12.890625 34.90625q11.59375 12.109375 28.90625 12.109375q12.890625 0 22.0 -6.765625q9.109375 -6.78125 14.453125 -21.625zm-76.953125 -37.890625l77.21875 0q-1.5625 -17.4375 -8.859375 -26.171875q-11.203125 -13.53125 -29.03125 -13.53125q-16.140625 0 -27.15625 10.8125q-11.0 10.796875 -12.171875 28.890625z" fill-rule="nonzero"/><path fill="#cfe2f3" d="m679.3097 577.8924l-83.046936 16.50238l0 -33.00476zm-60.290405 -81.31433l-37.82898 44.4859l-41.766052 -23.337585zm-145.50485 -33.677795l29.533447 46.404083l-59.066895 0zm-145.52393 33.677795l79.614105 21.148315l-41.766052 23.337585zm-60.271362 81.31433l83.04697 -16.50238l0 33.00476zm60.271362 81.30371l37.848053 -44.47534l41.766052 23.337646zm145.52393 33.688416l-29.533447 -46.404114l59.066895 0zm145.50485 -33.688416l-79.59503 -21.137695l41.766052 -23.337646zm-248.4025 -81.30371c0 -31.754211 46.068848 -57.496094 102.897644 -57.496094c56.828827 0 102.89761 25.741882 102.89761 57.496094c0 31.754211 -46.068787 57.496033 -102.89761 57.496033c-56.828796 0 -102.897644 -25.741821 -102.897644 -57.496033z" fill-rule="evenodd"/><path stroke="#000000" stroke-width="1.0" stroke-linejoin="round" stroke-linecap="butt" d="m679.3097 577.8924l-83.046936 16.50238l0 -33.00476zm-60.290405 -81.31433l-37.82898 44.4859l-41.766052 -23.337585zm-145.50485 -33.677795l29.533447 46.404083l-59.066895 0zm-145.52393 33.677795l79.614105 21.148315l-41.766052 23.337585zm-60.271362 81.31433l83.04697 -16.50238l0 33.00476zm60.271362 81.30371l37.848053 -44.47534l41.766052 23.337646zm145.52393 33.688416l-29.533447 -46.404114l59.066895 0zm145.50485 -33.688416l-79.59503 -21.137695l41.766052 -23.337646zm-248.4025 -81.30371c0 -31.754211 46.068848 -57.496094 102.897644 -57.496094c56.828827 0 102.89761 25.741882 102.89761 57.496094c0 31.754211 -46.068787 57.496033 -102.89761 57.496033c-56.828796 0 -102.897644 -25.741821 -102.897644 -57.496033z" fill-rule="evenodd"/></g></svg>