<svg version="1.1" viewBox="0.0 0.0 960.0 720.0" fill="none" stroke="none" stroke-linecap="square" stroke-miterlimit="10" xmlns:xlink="http://www.w3.org/1999/xlink" xmlns="http://www.w3.org/2000/svg"><clipPath id="p.0"><path d="m0 0l960.0 0l0 720.0l-960.0 0l0 -720.0z" clip-rule="nonzero"/></clipPath><g clip-path="url(#p.0)"><path fill="#000000" fill-opacity="0.0" d="m0 0l960.0 0l0 720.0l-960.0 0z" fill-rule="evenodd"/><path fill="#000000" fill-opacity="0.0" d="m50.598427 60.755905l858.8031 0l0 598.48816l-858.8031 0z" fill-rule="evenodd"/><path fill="#000000" d="m102.992195 296.00003l0 -120.04689l-20.703125 0l0 -18.234375l20.703125 0l0 -14.703125q0 -13.9375 2.484375 -20.703125q3.375 -9.125 11.90625 -14.78125q8.53125 -5.671875 23.890617 -5.671875q9.890625 0 21.875 2.34375l-3.515625 20.453125q-7.296875 -1.3125 -13.796875 -1.3125q-10.671875 0 -15.109375 4.5625q-4.4218674 4.5625 -4.4218674 17.0625l0 12.75l26.953117 0l0 18.234375l-26.953117 0l0 120.04689l-23.3125 0zm68.61689 -163.92189l0 -26.953125l23.4375 0l0 26.953125l-23.4375 0zm0 163.92189l0 -138.28127l23.4375 0l0 138.28127l-23.4375 0zm58.601852 0l0 -190.87502l23.4375 0l0 190.87502l-23.4375 0zm154.41434 -44.531265l24.21875 3.0q-5.734375 21.218765 -21.234375 32.937515q-15.484375 11.71875 -39.578125 11.71875q-30.328125 0 -48.109344 -18.6875q-17.765625 -18.6875 -17.765625 -52.406265q0 -34.890625 17.96875 -54.15625q17.96872 -19.28125 46.609344 -19.28125q27.734375 0 45.3125 18.890625q17.578125 18.875 17.578125 53.125q0 2.078125 -0.125 6.234375l-103.12497 0q1.2968445 22.796875 12.8905945 34.906265q11.59375 12.109375 28.90625 12.109375q12.890625 0 22.0 -6.765625q9.109375 -6.78125 14.453125 -21.625015zm-76.953125 -37.890625l77.21875 0q-1.5625 -17.4375 -8.859375 -26.171875q-11.203125 -13.53125 -29.03125 -13.53125q-16.140625 0 -27.15625 10.8125q-11.0 10.796875 -12.171875 28.890625zm181.77026 61.45314l3.375 20.703125q-9.890625 2.09375 -17.703125 2.09375q-12.75 0 -19.78125 -4.03125q-7.03125 -4.046875 -9.90625 -10.625q-2.859375 -6.578125 -2.859375 -27.67189l0 -79.546875l-17.1875 0l0 -18.234375l17.1875 0l0 -34.234375l23.3125 -14.0625l0 48.296875l23.5625 0l0 18.234375l-23.5625 0l0 80.85939q0 10.015625 1.234375 12.890625q1.234375 2.859375 4.03125 4.5625q2.796875 1.6875 8.015625 1.6875q3.90625 0 10.28125 -0.921875zm22.648163 20.96875l0 -138.28127l21.09375 0l0 20.96875q8.078125 -14.71875 14.90625 -19.40625q6.84375 -4.6875 15.046936 -4.6875q11.84375 0 24.078125 7.5625l-8.0625 21.734375q-8.59375 -5.078125 -17.187561 -5.078125q-7.6875 0 -13.8125 4.625q-6.109375 4.625 -8.71875 12.828125q-3.90625 12.5 -3.90625 27.34375l0 72.39064l-23.4375 0zm183.72052 -44.531265l24.21875 3.0q-5.734375 21.218765 -21.234375 32.937515q-15.484375 11.71875 -39.578125 11.71875q-30.328125 0 -48.109375 -18.6875q-17.765625 -18.6875 -17.765625 -52.406265q0 -34.890625 17.96875 -54.15625q17.96875 -19.28125 46.609375 -19.28125q27.734375 0 45.3125 18.890625q17.578125 18.875 17.578125 53.125q0 2.078125 -0.125 6.234375l-103.125 0q1.296875 22.796875 12.890625 34.906265q11.59375 12.109375 28.90625 12.109375q12.890625 0 22.0 -6.765625q9.109375 -6.78125 14.453125 -21.625015zm-76.953125 -37.890625l77.21875 0q-1.5625 -17.4375 -8.859375 -26.171875q-11.203125 -13.53125 -29.03125 -13.53125q-16.140625 0 -27.15625 10.8125q-11.0 10.796875 -12.171875 28.890625zm225.25464 37.890625l24.21875 3.0q-5.734375 21.218765 -21.234375 32.937515q-15.484375 11.71875 -39.578125 11.71875q-30.328125 0 -48.109375 -18.6875q-17.765625 -18.6875 -17.765625 -52.406265q0 -34.890625 17.96875 -54.15625q17.96875 -19.28125 46.609375 -19.28125q27.734375 0 45.3125 18.890625q17.578125 18.875 17.578125 53.125q0 2.078125 -0.125 6.234375l-103.125 0q1.296875 22.796875 12.890625 34.906265q11.59375 12.109375 28.90625 12.109375q12.890625 0 22.0 -6.765625q9.109375 -6.78125 14.453125 -21.625015zm-76.953125 -37.890625l77.21875 0q-1.5625 -17.4375 -8.859375 -26.171875q-11.203125 -13.53125 -29.03125 -13.53125q-16.140625 0 -27.15625 10.8125q-11.0 10.796875 -12.171875 28.890625z" fill-rule="nonzero"/><path fill="#000000" d="m89.91175 616.0l0 -138.28125l21.09375 0l0 19.671875q15.234375 -22.796875 43.999992 -22.796875q12.5 0 22.984375 4.5q10.484375 4.484375 15.6875 11.78125q5.21875 7.296875 7.296875 17.3125q1.296875 6.515625 1.296875 22.796875l0 85.015625l-23.4375 0l0 -84.109375q0 -14.328125 -2.734375 -21.421875q-2.734375 -7.09375 -9.703125 -11.328125q-6.953125 -4.234375 -16.328125 -4.234375q-14.96875 0 -25.843742 9.515625q-10.875 9.5 -10.875 36.0625l0 75.515625l-23.4375 0zm238.53586 -17.0625q-13.03125 11.078125 -25.078094 15.640625q-12.03125 4.546875 -25.828125 4.546875q-22.79689 0 -35.031265 -11.125q-12.234375 -11.140625 -12.234375 -28.453125q0 -10.15625 4.609375 -18.546875q4.625 -8.40625 12.109375 -13.484375q7.5 -5.078125 16.875015 -7.6875q6.890625 -1.8125 20.828125 -3.515625q28.37497 -3.375 41.796844 -8.0625q0.125 -4.828125 0.125 -6.125q0 -14.328125 -6.640625 -20.1875q-8.984375 -7.9375 -26.68747 -7.9375q-16.53125 0 -24.421875 5.796875q-7.875 5.796875 -11.640625 20.5l-22.92189 -3.125q3.125 -14.703125 10.28125 -23.75q7.171875 -9.0625 20.70314 -13.9375q13.546875 -4.890625 31.375 -4.890625q17.71872 0 28.78122 4.171875q11.0625 4.171875 16.265625 10.484375q5.21875 6.3125 7.296875 15.953125q1.171875 5.984375 1.171875 21.609375l0 31.25q0 32.671875 1.5 41.34375q1.5 8.65625 5.921875 16.59375l-24.46875 0q-3.65625 -7.296875 -4.6875 -17.0625zm-1.953125 -52.328125q-12.765625 5.203125 -38.28122 8.84375q-14.453125 2.078125 -20.453125 4.6875q-5.984375 2.609375 -9.234375 7.625q-3.2500153 5.0 -3.2500153 11.125q0 9.375 7.0937653 15.625q7.09375 6.25 20.765625 6.25q13.53125 0 24.078094 -5.921875q10.546875 -5.921875 15.5 -16.21875q3.78125 -7.9375 3.78125 -23.4375l0 -8.578125zm98.42651 69.390625l-52.59375 -138.28125l24.734375 0l29.6875 82.8125q4.8125 13.40625 8.859375 27.859375q3.109375 -10.9375 8.71875 -26.296875l30.71875 -84.375l24.09375 0l-52.34375 138.28125l-21.875 0zm116.53128 0l-21.734375 0l0 -190.875l23.4375 0l0 68.09375q14.84375 -18.625 37.875 -18.625q12.765625 0 24.15625 5.15625q11.390625 5.140625 18.75 14.453125q7.359375 9.296875 11.515625 22.453125q4.171875 13.15625 4.171875 28.125q0 35.546875 -17.578125 54.953125q-17.578125 19.390625 -42.1875 19.390625q-24.46875 0 -38.40625 -20.4375l0 17.3125zm-0.25 -70.171875q0 24.859375 6.765625 35.921875q11.0625 18.109375 29.9375 18.109375q15.375 0 26.5625 -13.34375q11.203125 -13.359375 11.203125 -39.78125q0 -27.078125 -10.75 -39.96875q-10.734375 -12.890625 -25.96875 -12.890625q-15.359375 0 -26.5625 13.34375q-11.1875 13.34375 -11.1875 38.609375zm217.17645 53.109375q-13.03125 11.078125 -25.078125 15.640625q-12.03125 4.546875 -25.828125 4.546875q-22.796875 0 -35.03125 -11.125q-12.234375 -11.140625 -12.234375 -28.453125q0 -10.15625 4.609375 -18.546875q4.625 -8.40625 12.109375 -13.484375q7.5 -5.078125 16.875 -7.6875q6.890625 -1.8125 20.828125 -3.515625q28.375 -3.375 41.796875 -8.0625q0.125 -4.828125 0.125 -6.125q0 -14.328125 -6.640625 -20.1875q-8.984375 -7.9375 -26.6875 -7.9375q-16.53125 0 -24.421875 5.796875q-7.875 5.796875 -11.640625 20.5l-22.921875 -3.125q3.125 -14.703125 10.28125 -23.75q7.171875 -9.0625 20.703125 -13.9375q13.546875 -4.890625 31.375 -4.890625q17.71875 0 28.78125 4.171875q11.0625 4.171875 16.265625 10.484375q5.21875 6.3125 7.296875 15.953125q1.171875 5.984375 1.171875 21.609375l0 31.25q0 32.671875 1.5 41.34375q1.5 8.65625 5.921875 16.59375l-24.46875 0q-3.65625 -7.296875 -4.6875 -17.0625zm-1.953125 -52.328125q-12.765625 5.203125 -38.28125 8.84375q-14.453125 2.078125 -20.453125 4.6875q-5.984375 2.609375 -9.234375 7.625q-3.25 5.0 -3.25 11.125q0 9.375 7.09375 15.625q7.09375 6.25 20.765625 6.25q13.53125 0 24.078125 -5.921875q10.546875 -5.921875 15.5 -16.21875q3.78125 -7.9375 3.78125 -23.4375l0 -8.578125zm59.75464 69.390625l0 -138.28125l21.09375 0l0 20.96875q8.078125 -14.71875 14.90625 -19.40625q6.84375 -4.6875 15.046875 -4.6875q11.84375 0 24.078125 7.5625l-8.0625 21.734375q-8.59375 -5.078125 -17.1875 -5.078125q-7.6875 0 -13.8125 4.625q-6.109375 4.625 -8.71875 12.828125q-3.90625 12.5 -3.90625 27.34375l0 72.390625l-23.4375 0z" fill-rule="nonzero"/><path fill="#cfe2f3" d="m685.7953 366.7848l-83.046936 16.50238l0 -33.00479zm-60.290405 -81.31436l-37.82898 44.48593l-41.766052 -23.337585zm-145.50488 -33.67778l29.533447 46.4041l-59.066895 0zm-145.52393 33.67778l79.614105 21.148346l-41.766052 23.337585zm-60.271362 81.31436l83.04697 -16.50241l0 33.00479zm60.271362 81.30368l37.848053 -44.47528l41.766052 23.337585zm145.52393 33.688446l-29.533447 -46.404114l59.066895 0zm145.50488 -33.688446l-79.59503 -21.137695l41.766052 -23.337585zm-248.40253 -81.30368c0 -31.754211 46.068848 -57.496063 102.897644 -57.496063c56.828796 0 102.897644 25.741852 102.897644 57.496063c0 31.75418 -46.068848 57.496063 -102.897644 57.496063c-56.828796 0 -102.897644 -25.741882 -102.897644 -57.496063z" fill-rule="evenodd"/><path stroke="#000000" stroke-width="1.0" stroke-linejoin="round" stroke-linecap="butt" d="m685.7953 366.7848l-83.046936 16.50238l0 -33.00479zm-60.290405 -81.31436l-37.82898 44.48593l-41.766052 -23.337585zm-145.50488 -33.67778l29.533447 46.4041l-59.066895 0zm-145.52393 33.67778l79.614105 21.148346l-41.766052 23.337585zm-60.271362 81.31436l83.04697 -16.50241l0 33.00479zm60.271362 81.30368l37.848053 -44.47528l41.766052 23.337585zm145.52393 33.688446l-29.533447 -46.404114l59.066895 0zm145.50488 -33.688446l-79.59503 -21.137695l41.766052 -23.337585zm-248.40253 -81.30368c0 -31.754211 46.068848 -57.496063 102.897644 -57.496063c56.828796 0 102.897644 25.741852 102.897644 57.496063c0 31.75418 -46.068848 57.496063 -102.897644 57.496063c-56.828796 0 -102.897644 -25.741882 -102.897644 -57.496063z" fill-rule="evenodd"/></g></svg>