<svg version="1.1" id="Layer_1" xmlns="http://www.w3.org/2000/svg" xmlns:xlink="http://www.w3.org/1999/xlink" x="0px" y="0px"
	 width="100%" viewBox="0 0 240 208" enable-background="new 0 0 240 208" xml:space="preserve">
<path fill="#000000" opacity="1.000000" stroke="none" 
	d="
M101.468658,209.000000 
	C100.725380,206.612137 99.611832,204.359772 101.280632,201.831360 
	C102.344322,200.219742 100.832756,198.280289 99.876328,196.787552 
	C95.254906,189.574783 93.277809,181.590073 92.697098,173.171722 
	C92.568108,171.301849 91.990067,169.594818 91.174614,167.932831 
	C88.834343,163.163116 88.850067,158.310181 90.713219,153.401337 
	C90.949623,152.778473 91.196686,152.155975 91.376274,151.515762 
	C94.178658,141.525421 93.688560,140.214081 85.443031,134.001129 
	C76.393890,127.182648 67.444031,120.240440 58.943623,112.730400 
	C53.201336,107.657150 50.716309,101.425415 52.438751,93.961578 
	C53.299679,90.230927 50.909519,87.417404 50.017147,83.317047 
	C54.544796,85.807838 56.311359,88.932480 56.126404,92.998306 
	C55.814419,99.856613 58.545578,105.318298 63.446793,109.814163 
	C71.615913,117.307701 80.028465,124.494965 89.972076,129.793015 
	C85.980751,122.030609 79.968086,115.433571 77.449059,106.081322 
	C80.957870,107.453186 82.483574,109.875488 84.201462,111.931290 
	C89.229584,117.948509 93.856941,124.258133 97.387398,131.309921 
	C98.434227,133.400894 99.552917,135.521225 102.939545,135.187622 
	C102.710907,123.722382 102.052971,112.202744 105.146973,100.951973 
	C109.186043,111.400215 105.432549,122.654549 109.890007,133.267593 
	C111.015938,125.151489 112.141876,117.035393 113.335632,108.430397 
	C116.667030,110.712967 116.699394,114.001236 117.135658,116.902306 
	C117.734505,120.884491 117.016388,124.841438 116.145714,128.779648 
	C112.877312,143.563171 117.553619,152.822510 131.513245,158.749222 
	C137.020050,161.087204 142.770340,162.858276 148.432892,164.820724 
	C152.437714,166.208633 155.420288,168.652649 156.922943,172.686386 
	C157.516556,174.279892 158.070236,176.066711 156.101410,177.076523 
	C154.211105,178.046051 153.425537,176.348938 152.647705,175.131012 
	C151.518341,173.362686 150.373978,171.688095 147.911301,172.458221 
	C145.658691,173.162659 145.045029,175.195114 144.726196,177.167786 
	C144.027390,181.491760 145.518402,185.359787 147.655579,189.016983 
	C148.483109,190.433090 149.761734,190.266846 151.171082,190.006485 
	C154.357224,189.417877 156.483215,190.908157 157.022385,193.978317 
	C157.878906,198.855469 160.965897,198.443024 164.765427,197.657410 
	C164.419693,195.911880 162.408920,197.531784 162.191315,195.732346 
	C163.300278,193.346786 164.859772,191.899902 167.657028,194.326447 
	C168.723328,195.251434 169.708923,196.084442 171.163757,195.141876 
	C172.664062,194.169846 172.015732,192.803192 171.820282,191.527664 
	C170.967148,185.959702 171.776672,180.589035 173.616974,175.309845 
	C174.768829,172.005524 175.629364,168.646240 175.779556,165.092361 
	C176.224884,154.555023 172.657440,148.569092 163.158157,144.033478 
	C160.035690,142.542603 157.728561,144.205933 155.330048,145.721649 
	C153.883224,146.635956 152.436874,148.917023 150.688339,146.897522 
	C148.748764,144.657379 151.019348,143.012314 152.375153,141.405914 
	C153.414261,140.174759 155.406693,139.927353 156.103622,137.219818 
	C148.787857,135.508926 143.184097,141.135254 136.042374,141.836075 
	C138.300598,136.224686 143.448792,134.864716 148.155792,131.362396 
	C138.423508,130.357132 132.040543,135.313461 125.544739,140.350693 
	C124.892624,134.090866 130.726761,128.483475 140.079987,125.683189 
	C147.358719,123.503990 154.529999,125.094330 162.061737,126.082298 
	C155.240601,119.726547 150.024750,112.375458 146.552307,104.437401 
	C145.270798,103.807030 144.726761,104.215874 144.220901,104.652084 
	C136.759933,111.085938 134.076660,111.007973 129.077026,102.635193 
	C124.958092,95.737320 119.496597,91.092651 112.278053,87.695663 
	C102.185883,82.946358 101.250648,75.967896 109.177734,68.131104 
	C112.193161,65.150017 114.543571,61.928463 116.135590,57.941463 
	C119.582581,49.308949 125.708168,44.455536 135.488525,45.624668 
	C138.214661,45.950554 139.839401,44.867363 140.978455,42.406204 
	C143.021866,37.990967 145.707748,33.992134 149.385849,30.720175 
	C157.592331,23.419886 167.062103,23.100204 175.645676,29.997625 
	C178.718887,32.467140 181.602570,35.179047 183.756836,38.528381 
	C182.158661,40.137730 181.003983,39.060898 179.948318,38.466675 
	C178.211319,37.488922 176.580292,36.323383 174.900879,35.242802 
	C162.344025,27.163294 153.384842,29.620285 146.241409,42.835472 
	C144.480667,46.092796 145.267517,47.527122 148.475555,48.795559 
	C151.410599,49.956059 154.823044,49.235222 157.752045,51.358509 
	C156.785004,53.851364 154.680389,54.118938 152.558319,54.284935 
	C148.531219,54.599953 144.606750,53.999649 140.678375,53.102600 
	C135.595139,51.941841 133.195236,53.388813 131.593460,58.305332 
	C131.130356,59.726837 130.687347,61.190319 130.519623,62.666874 
	C129.440262,72.169327 125.538567,79.531563 115.238899,82.676987 
	C126.207764,86.003349 131.016830,95.306419 137.615952,103.754311 
	C144.206833,92.720261 150.183823,81.772095 152.482971,68.736984 
	C155.865402,71.990471 155.545578,75.746483 154.937881,79.481766 
	C154.701416,80.935242 153.973541,82.311417 153.448303,83.714867 
	C147.731018,98.991791 153.757141,113.845299 168.532181,121.129150 
	C173.828888,123.740341 179.548569,124.886971 185.195450,126.285362 
	C189.559402,127.366035 193.649734,129.142487 197.853409,131.131989 
	C196.473618,123.398727 188.051407,123.378273 184.451324,118.734879 
	C185.101532,116.638931 186.389542,116.574387 187.482513,116.875381 
	C190.419113,117.684105 193.062180,117.329620 195.540375,115.539421 
	C196.590485,114.780846 197.713882,114.728180 198.733047,115.655754 
	C199.535080,116.385742 200.028091,117.299858 199.351059,118.299812 
	C197.313065,121.309937 199.366806,123.345161 201.078537,125.327248 
	C203.144394,127.719368 205.260727,130.118637 207.649582,132.172424 
	C218.928284,141.869141 222.222778,154.197205 219.106384,168.256302 
	C216.434769,180.308929 212.876938,192.132462 203.715881,201.421555 
	C204.749115,203.259750 205.779541,205.092926 206.832382,206.965988 
	C207.745209,207.244492 208.398941,206.697006 208.924484,206.052994 
	C226.198608,184.884766 237.032990,161.340591 235.672775,133.320709 
	C235.268433,124.991165 234.483475,116.900154 230.024414,109.348969 
	C224.100967,99.317902 223.074844,88.280670 225.863708,76.985062 
	C227.504562,70.339127 225.411530,64.461746 221.222382,59.835079 
	C214.358734,52.254562 209.790421,43.685612 206.491852,34.104649 
	C203.708923,26.021416 197.131393,22.293516 188.860245,21.454956 
	C179.406113,20.496464 169.917969,20.060593 160.422134,20.434986 
	C155.779434,20.618034 151.951538,23.224522 148.036316,25.430309 
	C146.496170,26.298008 145.209534,27.724266 142.947021,27.885506 
	C142.710297,23.903242 146.757233,23.022619 148.473236,19.574593 
	C140.440155,18.481474 138.044022,26.181133 132.113098,28.826200 
	C133.014297,22.901911 137.483795,20.103498 140.428833,16.089025 
	C139.009674,13.562036 136.668488,12.076628 134.144699,11.589709 
	C114.952080,7.886859 95.557693,5.599452 76.072350,7.933540 
	C59.938351,9.866179 47.301800,19.210667 36.464367,30.583950 
	C17.260317,50.737534 10.862658,74.686829 17.172754,101.907730 
	C17.248011,102.232368 17.243946,102.612335 17.418081,102.871689 
	C21.265327,108.601570 20.991570,113.933937 16.726578,119.531219 
	C14.595860,122.327530 14.783307,126.113365 15.414112,129.614700 
	C17.625597,130.051834 17.709385,128.386078 18.184179,127.284546 
	C18.905447,125.611168 19.303556,123.778603 20.164583,122.190193 
	C21.351048,120.001396 22.767668,117.316963 25.474209,117.450516 
	C28.020763,117.576157 27.976007,120.665207 28.725824,122.566208 
	C34.068230,136.110733 42.301819,147.270508 54.723942,155.198593 
	C60.967587,159.183411 62.279274,165.831100 63.277580,172.515930 
	C63.449066,173.664215 63.043411,175.089294 63.586437,175.962204 
	C69.371971,185.262314 67.822433,195.665009 68.279152,205.769913 
	C68.316147,206.588348 68.592461,207.395996 68.878784,208.604324 
	C46.344814,209.000000 23.689627,209.000000 1.017220,209.000000 
	C1.017220,139.713272 1.017220,70.426521 1.017220,1.069892 
	C80.912834,1.069892 160.825745,1.069892 240.869324,1.069892 
	C240.869324,70.210884 240.869324,139.422104 240.869324,209.000000 
	C194.646423,209.000000 148.291870,209.000000 101.468658,209.000000 
M115.790131,178.653595 
	C112.616470,173.814392 108.798820,169.256668 109.644409,162.820099 
	C110.421921,156.901611 108.105652,151.776443 105.342964,146.757233 
	C103.940483,144.209213 102.117722,142.682907 98.850655,142.980118 
	C97.065002,151.845963 93.424377,160.463593 97.455956,169.666138 
	C98.281021,171.549454 98.190552,173.897369 98.246002,176.038284 
	C98.315788,178.732834 98.824196,181.323257 99.625099,183.858307 
	C100.232697,185.781479 101.609444,186.856506 103.707001,186.906479 
	C105.442627,186.947800 107.050270,186.822083 107.810791,184.876846 
	C109.026131,181.768280 111.190041,181.324509 114.256012,182.175858 
	C117.008667,182.940231 116.839165,181.111938 115.790131,178.653595 
M181.252579,159.654572 
	C181.282211,167.222595 179.320358,174.400299 177.030807,181.525345 
	C175.852295,185.192841 176.357224,188.814377 178.208694,192.097961 
	C179.896484,195.091248 182.813263,192.508453 185.075226,193.187561 
	C185.724655,193.382538 186.538956,194.130173 187.373932,192.798035 
	C186.629913,190.980392 185.794647,189.008316 185.012527,187.015411 
	C183.159714,182.294220 181.708740,177.386047 183.895340,172.512985 
	C187.775299,163.866043 184.570038,155.901138 181.890976,147.935547 
	C180.661285,144.279358 177.778244,142.039948 173.378326,142.149643 
	C176.899490,147.406967 181.604218,151.897659 181.252579,159.654572 
M124.382896,57.645447 
	C123.037407,57.179409 122.660919,58.325909 122.195595,59.086033 
	C118.910294,64.452713 117.366455,70.831375 111.750587,75.083076 
	C114.620781,76.120171 116.221497,75.182449 117.856247,74.420921 
	C125.059486,71.065414 124.186676,64.361923 124.382896,57.645447 
z"/>
<path fill="#000000" opacity="1.000000" stroke="none" 
	d="
M192.443970,101.638962 
	C192.386246,102.260994 192.302643,102.573250 192.219055,102.885513 
	C186.649734,99.881691 179.976486,101.363365 174.374176,98.493797 
	C171.697464,97.122757 170.047592,95.437599 172.682007,91.992012 
	C175.715714,95.833565 178.272446,94.440331 181.243652,91.846153 
	C185.174591,88.414040 187.287918,89.182266 190.461121,94.427155 
	C190.274765,95.634476 188.644104,94.965828 188.016754,96.243141 
	C190.725525,97.029709 192.974213,98.102196 192.443970,101.638962 
z"/>
</svg>